<svg width="33" height="22" viewBox="0 0 33 22" fill="none" xmlns="http://www.w3.org/2000/svg">
<path d="M9.8505 16.2963L4.95 21.1852C4.4055 21.6741 3.6795 22 2.8875 22C2.12169 22 1.38724 21.6995 0.845729 21.1647C0.304218 20.6299 0 19.9045 0 19.1481V18.7407L1.65 6.71407C1.9965 2.94963 5.181 0 9.075 0H23.925C27.819 0 31.0035 2.94963 31.35 6.71407L33 18.7407V19.1481C33 19.9045 32.6958 20.6299 32.1543 21.1647C31.6128 21.6995 30.8783 22 30.1125 22C29.3205 22 28.5945 21.6741 28.05 21.1852L23.1495 16.2963H9.8505ZM8.25 3.25926V6.51852H4.95V8.14815H8.25V11.4074H9.9V8.14815H13.2V6.51852H9.9V3.25926H8.25ZM23.925 3.25926C23.5968 3.25926 23.282 3.38803 23.05 3.61724C22.8179 3.84645 22.6875 4.15733 22.6875 4.48148C22.6875 4.80563 22.8179 5.11651 23.05 5.34572C23.282 5.57493 23.5968 5.7037 23.925 5.7037C24.2532 5.7037 24.568 5.57493 24.8 5.34572C25.0321 5.11651 25.1625 4.80563 25.1625 4.48148C25.1625 4.15733 25.0321 3.84645 24.8 3.61724C24.568 3.38803 24.2532 3.25926 23.925 3.25926ZM21.0375 6.11111C20.7093 6.11111 20.3945 6.23988 20.1625 6.46909C19.9304 6.6983 19.8 7.00918 19.8 7.33333C19.8 7.65749 19.9304 7.96836 20.1625 8.19757C20.3945 8.42679 20.7093 8.55556 21.0375 8.55556C21.3657 8.55556 21.6805 8.42679 21.9125 8.19757C22.1446 7.96836 22.275 7.65749 22.275 7.33333C22.275 7.00918 22.1446 6.6983 21.9125 6.46909C21.6805 6.23988 21.3657 6.11111 21.0375 6.11111ZM26.8125 6.11111C26.4843 6.11111 26.1695 6.23988 25.9375 6.46909C25.7054 6.6983 25.575 7.00918 25.575 7.33333C25.575 7.65749 25.7054 7.96836 25.9375 8.19757C26.1695 8.42679 26.4843 8.55556 26.8125 8.55556C27.1407 8.55556 27.4555 8.42679 27.6875 8.19757C27.9196 7.96836 28.05 7.65749 28.05 7.33333C28.05 7.00918 27.9196 6.6983 27.6875 6.46909C27.4555 6.23988 27.1407 6.11111 26.8125 6.11111ZM23.925 8.96296C23.5968 8.96296 23.282 9.09173 23.05 9.32094C22.8179 9.55016 22.6875 9.86103 22.6875 10.1852C22.6875 10.5093 22.8179 10.8202 23.05 11.0494C23.282 11.2786 23.5968 11.4074 23.925 11.4074C24.2532 11.4074 24.568 11.2786 24.8 11.0494C25.0321 10.8202 25.1625 10.5093 25.1625 10.1852C25.1625 9.86103 25.0321 9.55016 24.8 9.32094C24.568 9.09173 24.2532 8.96296 23.925 8.96296Z" fill="#7F5AF0"/>
</svg>
